<?xml version="1.0" encoding="UTF-8" standalone="no"?>
<!-- Created with Inkscape (http://www.inkscape.org/) -->

<svg
   width="800"
   height="200"
   viewBox="0 0 211.66666 52.916665"
   version="1.1"
   xmlns="http://www.w3.org/2000/svg"
   xmlns:svg="http://www.w3.org/2000/svg"
   xmlns:rdf="http://www.w3.org/1999/02/22-rdf-syntax-ns#"
   xmlns:cc="http://creativecommons.org/ns#"
   xmlns:dc="http://purl.org/dc/elements/1.1/">
  <title>Cherly Good</title>
  <defs/>
  <g>
    <path
       style="font-size:42.3333px;font-family:'Covered By Your Grace';-inkscape-font-specification:'Covered By Your Grace';stroke-width:0.264583"
       d="m 4.6179904,34.006993 q 0.4960934,-4.134111 0.7854812,-6.366531 0.2893878,-2.232421 0.4134111,-3.30729 0.1653645,-1.240233 0.1653645,-1.446939 0.37207,-1.281574 0.7854812,-2.769854 0.4134111,-1.48828 1.074869,-2.769855 0.7027989,-1.281575 1.7776679,-2.149738 1.0748687,-0.868163 2.7698547,-0.868163 0.74414,0 1.322916,0.124023 0.620116,0.08268 1.157551,0.330729 0.537434,0.248047 1.033528,0.620117 0.537434,0.330729 1.11621,0.826822 0.413411,0.37207 0.454752,0.454752 0.08268,0.08268 0.08268,0.496094 0,0.537434 -0.37207,1.033527 -0.37207,0.496094 -1.074869,0.496094 -0.578775,0 -0.950845,-0.248047 -0.37207,-0.289388 -0.74414,-0.620117 -0.330729,-0.37207 -0.74414,-0.620116 -0.37207,-0.289388 -0.992187,-0.289388 -0.661458,0 -1.157551,0.37207 -0.496094,0.330729 -0.868164,0.868163 -0.330729,0.537435 -0.537434,1.198893 -0.1653648,0.661457 -0.248047,1.240233 L 7.9252796,33.841629 q 0,0.08268 -0.041341,0.413411 0,0.289388 0,0.454752 0,0.289388 0,0.74414 0,0.413411 0.082682,0.868164 0.082682,0.413411 0.2893878,0.74414 0.2067056,0.289388 0.6201167,0.289388 0.2480467,0 0.4547523,-0.165365 1.9843736,-1.322916 3.3899716,-3.059242 1.446939,-1.777668 2.728513,-3.762042 0.04134,-0.08268 0.206706,-0.37207 0.206706,-0.330729 0.37207,-0.661458 0.206706,-0.37207 0.37207,-0.702799 0.165365,-0.37207 0.248047,-0.537434 0.248047,-0.537435 0.37207,-1.11621 0.124023,-0.578776 0.289388,-1.074869 0.206705,-0.496094 0.578775,-0.785481 0.37207,-0.330729 1.157551,-0.330729 0.578776,0 1.116211,0.496093 0.537434,0.496093 0.537434,1.157551 v 0.08268 q -1.033528,2.976561 -2.687172,5.498369 -1.612304,2.521808 -3.596677,5.002275 -1.240234,1.48828 -2.852537,2.397784 -1.6123039,0.909505 -3.5966774,0.909505 H 7.7599151 Q 5.899565,39.629385 5.2381071,38.265128 4.6179904,36.85953 4.6179904,34.99918 Z M 26.900851,29.707517 h -0.124024 q 0,1.694986 0.04134,3.348631 0.08268,1.612303 0.08268,3.34863 0,0.496093 -0.04134,0.992187 0,0.454752 -0.124024,0.868163 -0.124023,0.37207 -0.454752,0.620117 -0.289388,0.206705 -0.909505,0.206705 -1.157551,0 -1.612303,-1.198892 -0.206706,-1.943032 -0.248047,-3.803382 -0.04134,-1.901692 -0.248046,-3.886065 -0.08268,-0.578776 -0.496094,-1.11621 -0.37207,-0.537435 -0.37207,-1.033528 0,-0.37207 0.248047,-0.620117 0.289388,-0.248047 0.289388,-0.702799 0,-3.224607 -0.206706,-6.366532 -0.165364,-3.183265 -0.165364,-6.366531 v -0.702799 q 0.289387,-0.413411 0.578775,-0.496094 0.289388,-0.08268 0.785481,-0.08268 1.198893,0 1.529622,0.74414 0.330729,0.702799 0.37207,1.736327 l 0.37207,10.996737 q 0.04134,0.124023 0.124023,0.413411 0.124023,0.248046 0.330729,0.248046 0.289388,0 1.074869,-0.124023 0.785481,-0.165364 1.653645,-0.330729 0.868163,-0.206705 1.570962,-0.413411 0.702799,-0.248047 0.826822,-0.454752 0,-0.289388 0,-1.033528 0.04134,-0.74414 0.04134,-1.033528 0,-1.736327 -0.04134,-3.431313 -0.04134,-1.694985 -0.165364,-3.431312 0,-0.289388 -0.124024,-1.364257 -0.124023,-1.11621 -0.248046,-2.397784 -0.124024,-1.281575 -0.248047,-2.356444 -0.08268,-1.1162101 -0.08268,-1.4055979 -0.04134,-0.041341 -0.04134,-0.2480467 0,-0.2480467 0,-0.3307289 0,-0.5374345 0.37207,-0.7854812 0.413411,-0.2480467 0.868163,-0.2480467 0.992187,0 1.446939,0.6201167 0.496094,0.6201167 0.702799,1.5296212 0.04134,0.4547525 0.124023,1.5296215 0.08268,1.074869 0.206706,2.315102 0.124023,1.240234 0.206706,2.356444 0.124023,1.074869 0.165364,1.48828 v 0.661458 q 0,0.206705 0.04134,0.826822 0.08268,0.578776 0.124024,0.785481 v 16.949857 q 0.206705,0.702799 0.248046,1.157551 0.08268,0.454753 0.08268,1.074869 0,0.496094 -0.289387,1.074869 -0.248047,0.537435 -0.909505,0.537435 -0.578775,0 -1.074869,-0.289388 -0.454752,-0.289388 -0.826822,-0.74414 -0.330729,-0.454752 -0.537435,-0.992187 -0.206705,-0.578775 -0.206705,-1.157551 v -8.51627 z m 12.981108,9.715162 q -0.413411,-1.653644 -0.620116,-3.100583 -0.206706,-1.48828 -0.289388,-3.141925 -0.04134,-0.950846 0,-1.612303 0.04134,-0.702799 -0.165365,-1.529622 -0.04134,-0.165364 -0.206705,-0.248046 -0.124024,-0.08268 -0.289388,-0.206706 -0.124023,-0.124023 -0.248047,-0.289388 -0.124023,-0.206705 -0.124023,-0.620117 0,-0.330728 0.124023,-0.578775 0.165365,-0.248047 0.289388,-0.454752 0.165365,-0.248047 0.289388,-0.496094 0.165364,-0.289388 0.165364,-0.661458 v -0.620116 q 0,-0.413411 -0.08268,-1.405598 -0.08268,-0.992187 -0.165364,-2.108397 -0.08268,-1.11621 -0.165365,-2.108397 -0.04134,-0.992187 -0.08268,-1.364257 -0.04134,-0.702799 -0.37207,-1.240233 -0.330729,-0.537435 -0.330729,-1.240234 0,-1.322915 0.537435,-1.86035 0.537434,-0.537434 1.901691,-0.537434 0.289388,0 0.454752,0.248046 0.206706,0.248047 0.454752,0.248047 h 0.165365 q 0.124023,-0.04134 0.37207,-0.08268 0.248047,-0.08268 0.330729,-0.08268 3.472653,-1.48828 5.415686,-2.315103 1.943032,-0.826822 2.935219,-1.198892 0.992187,-0.37207 1.322916,-0.413411 0.37207,-0.04134 0.620116,0.08268 0.496094,0.08268 0.661458,0.330729 0.206706,0.206705 0.206706,0.661458 0,0.413411 -0.124024,0.826822 -0.124023,0.413411 -0.578775,0.620117 l -5.415686,2.60449 -0.165365,0.165364 -4.547522,1.943033 q -0.248047,0.08268 -0.289388,0.413411 -0.04134,0.330729 -0.04134,0.537434 0,0.330729 0.08268,1.198893 0.08268,0.868163 0.165364,1.819009 0.08268,0.909504 0.165365,1.653644 0.124023,0.702799 0.165364,0.702799 h 0.04134 q 0,0 0.04134,-0.04134 0.454752,-0.330729 1.446939,-1.11621 0.992186,-0.826822 2.025714,-1.653644 1.033528,-0.826823 1.819009,-1.446939 0.785482,-0.661458 0.826823,-0.661458 0.454752,0 0.826822,0.454752 0.37207,0.454752 0.37207,0.950846 0,0.496093 -0.206706,1.11621 -0.206705,0.620116 -0.661457,0.950845 l -6.449214,5.746415 q 0,0 0,0.206706 0,0.206705 -0.04134,0.454752 0,0.248047 0,0.537435 0,0.248046 0,0.413411 0,1.48828 0.206705,2.97656 0.206706,1.446939 0.206706,2.935219 h 0.165364 q 0.04134,0 0.37207,-0.330729 0.330729,-0.330729 0.496094,-0.537434 0.08268,-0.124024 0.37207,-0.537435 0.330728,-0.413411 1.074869,-1.364256 0.74414,-0.950846 1.984373,-2.521808 1.240234,-1.570963 3.183266,-3.968748 0.165364,-0.165364 0.454752,-0.496093 0.330729,-0.330729 0.413411,-0.330729 0.124024,-0.124023 0.496094,-0.08268 0.413411,0 0.578775,0.08268 0.206706,0.08268 0.537435,0.454752 0.330729,0.37207 0.330729,0.702799 0,0.496094 -0.537435,1.322916 -0.496093,0.785481 -1.198892,1.653645 -0.702799,0.868163 -1.405598,1.694985 -0.702799,0.785482 -1.074869,1.281575 -0.578776,0.909504 -1.405598,2.23242 -0.785481,1.281575 -1.736327,2.480467 -0.950845,1.157551 -2.108397,2.025715 -1.11621,0.826822 -2.397784,0.826822 -0.620117,0 -0.909505,-0.206706 -0.248046,-0.206705 -0.661458,-0.74414 z m 17.363268,-8.681634 q -0.248047,-0.537434 -0.413411,-0.868163 -0.124024,-0.330729 -0.124024,-0.785481 0,-0.37207 0.08268,-0.661458 0.124024,-0.330729 0.124024,-0.702799 0,-0.909505 -0.08268,-1.694986 -0.04134,-0.785481 -0.124024,-1.736327 -0.04134,-0.124023 -0.289388,-0.206705 -0.248046,-0.08268 -0.537434,-0.206706 -0.289388,-0.165364 -0.537435,-0.454752 -0.206705,-0.289388 -0.206705,-0.826822 0,-0.496094 0.206705,-0.826823 0.248047,-0.37207 0.496094,-0.661458 0.248047,-0.330728 0.454752,-0.661457 0.248047,-0.37207 0.248047,-0.868164 0,-0.206705 -0.04134,-0.74414 -0.04134,-0.578775 -0.08268,-1.198892 0,-0.620117 -0.04134,-1.157551 0,-0.578776 0,-0.785482 v -0.08268 -0.08268 q 0.165365,-0.37207 0.248047,-0.620117 0.124023,-0.248046 0.248047,-0.37207 0.124023,-0.124023 0.330729,-0.165364 0.206705,-0.08268 0.537434,-0.08268 0.868164,0 1.281575,0.330728 0.413411,0.330729 0.578775,0.785482 0.165365,0.413411 0.206706,0.785481 0.04134,0.37207 0.206705,0.413411 l 2.976561,-2.60449 h 0.165364 q 1.446939,-0.950846 3.059243,-1.446939 1.612303,-0.537435 3.389971,-0.537435 0.537435,0 1.281575,0.124024 0.785481,0.124023 1.446939,0.454752 0.702799,0.289388 1.157551,0.785481 0.496093,0.496093 0.496093,1.240233 0,0.826823 -0.206705,1.694986 -0.206706,0.868164 -0.578776,1.736327 -0.330729,0.826822 -0.826822,1.612303 -0.454753,0.744141 -0.992187,1.281575 -0.206706,0.454752 -2.645831,2.315102 -2.439126,1.860351 -7.276037,5.53971 l 19.843736,1.240233 q 0.413411,0.04134 1.11621,0.08268 0.74414,0 1.405598,0.124024 0.702798,0.124023 1.198892,0.496093 0.496093,0.330729 0.496093,1.033528 0,0.37207 -0.124023,0.620117 -0.08268,0.206705 -0.248047,0.37207 -0.124023,0.124023 -0.330729,0.248047 -0.165364,0.124023 -0.330729,0.330728 h -0.702799 -0.702799 q -0.826822,-0.08268 -1.736326,-0.206705 -0.868164,-0.124023 -2.067056,-0.289388 -1.157551,-0.165364 -2.728514,-0.330729 -1.570962,-0.165364 -3.762041,-0.289388 -2.191079,-0.124023 -5.126298,-0.206705 -2.893878,-0.08268 -6.738602,-0.08268 -0.04134,0 -0.124023,0.124023 -0.04134,0.124023 -0.04134,0.206705 0,1.570963 0.248047,3.100584 0.289388,1.48828 0.289388,2.97656 0,0.289388 -0.08268,0.661458 -0.04134,0.330729 -0.206706,0.661458 -0.165364,0.289388 -0.413411,0.496093 -0.248047,0.206706 -0.620117,0.206706 -0.248046,0 -0.578775,-0.08268 -0.330729,-0.124024 -0.661458,-0.330729 -0.289388,-0.206706 -0.537435,-0.454752 -0.248046,-0.248047 -0.289387,-0.578776 z m 2.769854,-9.136386 q 0,1.033528 0.04134,1.943032 0.04134,0.909505 0.124023,1.984374 h 0.124023 q 0.04134,0 0.206706,-0.08268 0.165364,-0.08268 0.826822,-0.496094 0.661458,-0.454752 2.025715,-1.364257 1.364257,-0.950845 3.844723,-2.645831 0.496094,-0.289388 1.074869,-0.992187 0.578776,-0.702799 1.074869,-1.529621 0.496094,-0.826822 0.826823,-1.612303 0.330729,-0.826823 0.330729,-1.364257 0,-0.413411 -0.413412,-0.413411 -0.37207,0 -0.661457,0 -0.620117,0 -1.405598,0.206705 -0.785481,0.206706 -1.901692,0.826822 -1.074869,0.620117 -2.60449,1.777668 -1.48828,1.157552 -3.513995,3.100584 z m 27.161114,12.319652 q 0,-3.183266 0.08268,-6.325191 0.124023,-3.141924 0.124023,-6.366531 0,-1.86035 -0.206705,-3.720701 -0.165365,-1.86035 -0.165365,-3.7207 0,-0.578775 0.330729,-0.992187 0.37207,-0.413411 0.950846,-0.413411 0.992187,0 1.48828,0.413411 0.496093,0.413412 0.702799,1.033528 0.206706,0.620117 0.206706,1.405598 0,0.785481 0,1.529621 0,0.165365 0,0.826823 0.04134,0.661458 0.08268,1.446939 0.04134,0.74414 0.04134,1.405598 0.04134,0.661457 0.04134,0.826822 v 1.364257 q 0,2.687172 -0.08268,5.333004 -0.08268,2.645831 -0.08268,5.374344 v 1.736327 q 0,0.206706 0.04134,0.578776 0.08268,0.330729 0.124023,0.330729 h 0.330729 l 9.79785,-3.886065 q 0.33073,-0.289388 0.57877,-0.289388 0.24805,-0.04134 0.57878,-0.04134 0.2067,0 0.53743,0.04134 0.33073,0 0.62012,0.124024 0.33073,0.08268 0.53743,0.289387 0.24805,0.165365 0.24805,0.537435 0,0.950845 -1.03353,1.653644 -1.32291,0.702799 -2.72851,1.322916 -1.405602,0.578776 -2.852541,0.950846 l -0.206705,0.165364 q -1.984374,0.537435 -3.720701,1.570963 -1.694985,1.033527 -3.555335,1.901691 h -0.37207 q -1.116211,0 -1.653645,-0.74414 -0.537435,-0.74414 -0.702799,-1.736327 -0.165364,-1.033528 -0.124023,-2.108397 0.04134,-1.11621 0.04134,-1.819009 z m 26.499655,6.65592 q 0.0413,-0.206706 0.0827,-0.785482 0.0827,-0.578775 0.16536,-1.198892 0.12403,-0.661458 0.20671,-1.198892 0.0827,-0.578776 0.12402,-0.826823 0.20671,-1.86035 0.4961,-3.679359 0.33073,-1.86035 0.33073,-3.7207 v -0.620117 l -0.66146,-0.330729 q -0.16537,-0.08268 -0.82682,-0.537434 -0.66146,-0.454753 -1.48828,-1.033528 -0.78549,-0.578776 -1.57097,-1.157551 -0.78548,-0.620117 -1.19889,-0.992187 -0.24805,-0.165365 -0.82682,-0.620117 -0.53744,-0.496093 -1.15755,-1.033528 -0.57878,-0.578775 -1.11621,-1.074869 -0.53744,-0.537434 -0.74414,-0.74414 -0.33073,-0.330729 -0.62012,-0.74414 -0.28939,-0.454752 -0.28939,-0.909504 0,-0.702799 0.53744,-0.992187 0.53743,-0.330729 1.15755,-0.330729 0.41341,0 0.86816,0.124023 0.45475,0.08268 0.78548,0.413411 1.57097,1.736327 3.514,3.472654 1.94303,1.736327 3.96874,2.97656 l 0.16537,-0.537434 1.73633,-11.162101 q 0.0827,-0.454752 0.49609,-0.578776 0.45475,-0.124023 0.82682,-0.124023 1.07487,0 1.61231,0.537434 0.57877,0.496094 0.57877,1.694986 v 0.08268 q 0,0.04134 -0.0827,0.206706 -0.0413,0.165364 -0.12402,0.37207 -0.0414,0.206706 -0.0827,0.413411 -0.0413,0.165365 -0.0413,0.206706 -0.12402,0.496093 -0.33073,1.943032 -0.2067,1.405598 -0.45475,3.389971 -0.24805,1.943033 -0.53743,4.299476 -0.28939,2.356444 -0.57878,4.754229 -0.28939,2.356443 -0.57877,4.588863 -0.28939,2.191079 -0.53744,3.886065 0.0413,0.413411 0.0413,0.950846 0.0413,0.537434 -0.12402,1.033528 -0.16537,0.496093 -0.53744,0.826822 -0.33073,0.330729 -0.95084,0.330729 -0.78548,0 -1.4056,-0.413411 -0.57878,-0.413411 -0.82682,-1.157551 z m 40.59698,3.34863 q -0.62012,-2.480467 -0.90951,-5.250322 -0.24805,-2.811196 -0.33073,-5.250321 -0.37207,0.206705 -0.62011,0.661458 -0.24805,0.413411 -0.45476,0.909504 -0.16536,0.454752 -0.37207,0.950846 -0.2067,0.454752 -0.49609,0.785481 -0.95085,1.074869 -2.06706,1.984373 -1.11621,0.868164 -2.64583,0.868164 -1.24023,0 -2.48046,-0.537435 -1.1989,-0.537434 -2.19108,-1.405598 -0.95085,-0.909504 -1.57097,-2.067055 -0.57877,-1.157552 -0.57877,-2.439126 0,-1.777668 0.57877,-3.596677 0.57878,-1.86035 1.4056,-3.431313 0.16537,-0.289387 0.4961,-0.826822 0.37207,-0.578776 0.74414,-1.157551 0.41341,-0.578776 0.74414,-1.033528 0.33072,-0.496093 0.45475,-0.620117 l 4.50618,-4.754228 q 0.9095,-0.950846 2.27376,-1.364257 1.4056,-0.454752 2.60449,-0.537434 0.62012,-0.08268 1.03353,0.206705 0.41341,0.248047 0.41341,0.868164 0,0.496093 -0.41341,0.785481 -0.37207,0.248047 -0.90951,0.413411 -0.53743,0.165365 -1.11621,0.330729 -0.57877,0.124023 -0.9095,0.330729 -2.19108,1.777668 -3.96875,4.010088 -1.77767,2.191079 -3.18326,4.588864 -0.45476,1.446939 -0.95085,2.769854 -0.49609,1.322916 -0.49609,2.893879 0,0.124023 0,0.578775 0.0413,0.413411 0.0413,0.537435 0.41341,0.992186 1.24023,1.819009 0.86817,0.826822 2.02572,0.826822 0.57877,0 1.19889,-0.37207 0.62012,-0.37207 0.95085,-0.909505 0.16536,-0.206705 0.57877,-0.826822 0.41341,-0.620117 0.82682,-1.322916 0.45476,-0.702799 0.82683,-1.322915 0.41341,-0.620117 0.53743,-0.868164 0.12402,-0.248046 0.33073,-0.620116 0.24805,-0.413412 0.41341,-0.785482 0.20671,-0.37207 0.33073,-0.661457 0.16536,-0.330729 0.16536,-0.37207 v -0.165365 q -0.57877,0.165365 -1.15755,0.289388 -0.57877,0.08268 -1.19889,0.08268 -0.37207,0 -0.82682,-0.04134 -0.41341,-0.08268 -0.82682,-0.248047 -0.37207,-0.165364 -0.66146,-0.454752 -0.24805,-0.289388 -0.24805,-0.785481 0,-0.206706 0.0413,-0.496093 0.0413,-0.289388 0.16537,-0.454753 0.33073,-0.289388 0.86816,-0.413411 0.57878,-0.165364 1.19889,-0.206705 0.66146,-0.08268 1.28158,-0.124024 0.66145,-0.08268 1.19889,-0.289388 0.45475,-0.165364 1.07487,-0.413411 0.62011,-0.289388 1.28157,-0.537434 0.7028,-0.289388 1.4056,-0.496094 0.7028,-0.206705 1.28157,-0.289387 0.12403,0 0.33073,0.08268 0.24805,0.08268 0.4961,0.206705 0.24804,0.124024 0.41341,0.289388 0.16536,0.124024 0.16536,0.248047 0,0.909504 -0.49609,1.281574 -0.49609,0.330729 -1.28158,0.826823 0.12403,1.653644 -0.12402,3.307289 -0.2067,1.653645 -0.2067,3.307289 0,1.984374 0.0827,4.051429 0.0827,2.067056 0.41341,4.010088 0.0413,0.08268 0.12402,0.413412 0.0827,0.37207 0.16537,0.74414 0.12402,0.37207 0.2067,0.702799 0.0827,0.330729 0.0827,0.413411 v 0.08268 q 0,0.578776 -0.45475,1.11621 -0.41341,0.578776 -0.99218,0.578776 -0.62012,0 -1.1989,-0.413411 -0.53743,-0.413412 -0.66145,-0.992187 z m 6.15982,-10.914054 q 0.0413,-0.248047 0,-1.322916 -0.0413,-1.074869 -0.0413,-2.645831 0.0413,-1.612304 0.0827,-3.513995 0.0827,-1.901692 0.28939,-3.844724 0.24805,-1.943032 0.66146,-3.7207 0.45475,-1.819009 1.15755,-3.141925 0.24805,-1.11621 1.19889,-1.529621 0.95085,-0.454752 2.68717,-0.537435 1.11621,0 1.9017,0.578776 0.78548,0.578775 1.32291,1.446939 0.57878,0.826822 0.99219,1.819009 0.41341,0.992187 0.74414,1.777668 v 0.206705 q 0.28939,0.826823 0.41341,2.480467 0.16536,1.612304 0.20671,3.431313 0.0827,1.777668 0.0827,3.431312 0,1.653645 0,2.521808 0,1.240234 -0.33073,2.976561 -0.33073,1.694985 -1.07487,3.224607 -0.7028,1.529621 -1.86035,2.60449 -1.15755,1.074869 -2.76986,1.074869 -1.36425,0 -2.43912,-0.702799 -1.03353,-0.702799 -1.77767,-1.777668 -0.7028,-1.11621 -1.07487,-2.397785 -0.37207,-1.281574 -0.37207,-2.439125 z m 4.01009,2.769854 q 0.0827,0.454752 0.45475,0.950846 0.41341,0.454752 0.95085,0.454752 h 0.33073 q 1.73632,-1.570962 2.27376,-3.596677 0.53743,-2.067056 0.53743,-4.340817 0,-0.537434 -0.0413,-1.653645 -0.0413,-1.11621 -0.16536,-2.480466 -0.0827,-1.405598 -0.24805,-2.93522 -0.16536,-1.529621 -0.41341,-2.852536 -0.24805,-1.364257 -0.57878,-2.356444 -0.33073,-0.992187 -0.78548,-1.364257 -0.0413,0.04134 -0.12402,0.165365 -0.0413,0.124023 -0.0413,0.165364 -0.86817,1.074869 -1.57096,2.935219 -0.7028,1.86035 -1.07487,4.4235 -0.33073,2.521808 -0.28939,5.705073 0.0827,3.141925 0.78548,6.779943 z m 9.63247,-2.769854 q 0.0413,-0.248047 0,-1.322916 -0.0413,-1.074869 -0.0413,-2.645831 0.0413,-1.612304 0.0827,-3.513995 0.0827,-1.901692 0.28938,-3.844724 0.24805,-1.943032 0.66146,-3.7207 0.45475,-1.819009 1.15755,-3.141925 0.24805,-1.11621 1.1989,-1.529621 0.95084,-0.454752 2.68717,-0.537435 1.11621,0 1.90169,0.578776 0.78548,0.578775 1.32291,1.446939 0.57878,0.826822 0.99219,1.819009 0.41341,0.992187 0.74414,1.777668 v 0.206705 q 0.28939,0.826823 0.41341,2.480467 0.16537,1.612304 0.20671,3.431313 0.0827,1.777668 0.0827,3.431312 0,1.653645 0,2.521808 0,1.240234 -0.33073,2.976561 -0.33073,1.694985 -1.07487,3.224607 -0.7028,1.529621 -1.86035,2.60449 -1.15755,1.074869 -2.76985,1.074869 -1.36426,0 -2.43913,-0.702799 -1.03353,-0.702799 -1.77767,-1.777668 -0.70279,-1.11621 -1.07486,-2.397785 -0.37208,-1.281574 -0.37208,-2.439125 z m 4.01009,2.769854 q 0.0827,0.454752 0.45476,0.950846 0.41341,0.454752 0.95084,0.454752 h 0.33073 q 1.73633,-1.570962 2.27376,-3.596677 0.53744,-2.067056 0.53744,-4.340817 0,-0.537434 -0.0414,-1.653645 -0.0413,-1.11621 -0.16536,-2.480466 -0.0827,-1.405598 -0.24805,-2.93522 -0.16536,-1.529621 -0.41341,-2.852536 -0.24804,-1.364257 -0.57877,-2.356444 -0.33073,-0.992187 -0.78548,-1.364257 -0.0413,0.04134 -0.12403,0.165365 -0.0413,0.124023 -0.0413,0.165364 -0.86816,1.074869 -1.57096,2.935219 -0.7028,1.86035 -1.07487,4.4235 -0.33073,2.521808 -0.28939,5.705073 0.0827,3.141925 0.78548,6.779943 z m 14.55209,3.224607 q 0,-0.37207 0.24804,-0.661458 0.28939,-0.289387 0.28939,-0.620116 0,-0.08268 -0.16536,-0.206706 -0.16537,-0.124023 -0.20671,-0.165364 -0.41341,-0.620117 -0.45475,-1.405598 -0.0413,-0.785482 -0.0413,-1.48828 0,-3.803383 0.0413,-7.524083 0.0413,-3.720701 0.0413,-7.524083 -0.41341,0 -0.78548,0.206705 -0.37207,0.165365 -0.78548,0.413411 -0.41341,0.206706 -0.86817,0.413412 -0.45475,0.165364 -0.99218,0.165364 h -0.66146 q -0.0827,-0.124023 -0.41341,-0.206705 -0.33073,-0.124024 -0.33073,-0.289388 v -1.240234 q 0.2067,-0.124023 0.33073,-0.330729 0.16536,-0.248046 0.24804,-0.413411 l 4.17546,-2.067056 0.16536,-0.206705 q -0.0827,-1.157551 0.12402,-1.86035 0.20671,-0.702799 1.44694,-0.702799 0.33073,0 0.7028,0.124023 0.41341,0.124023 0.74414,0.330729 0.37207,0.206706 0.53744,0.537435 0.2067,0.330728 0.12402,0.74414 2.06706,0.08268 4.09277,0.330729 2.02572,0.206705 3.63802,0.992186 1.6123,0.74414 2.60449,2.23242 1.03353,1.488281 1.03353,4.092771 0,2.356443 -0.90951,4.712887 -0.9095,2.356443 -2.60449,4.051429 l -7.85481,7.813471 q -0.57878,0.578775 -0.99219,0.826822 -0.37207,0.248047 -1.11621,0.248047 -0.62011,0 -1.03352,-0.330729 -0.37207,-0.37207 -0.37207,-0.992187 z m 3.51399,-3.7207 h -0.16536 l 0.33072,-0.206706 q 0.0413,-0.04134 0.28939,-0.248046 0.28939,-0.248047 0.62012,-0.537435 0.33073,-0.330729 0.66146,-0.620117 0.33073,-0.289387 0.53743,-0.496093 0.95085,-0.992187 1.98438,-2.108397 1.07486,-1.11621 1.94303,-2.356443 0.86816,-1.281575 1.4056,-2.645832 0.57877,-1.405598 0.57877,-2.935219 0,-1.446939 -0.53743,-2.439126 -0.53744,-1.033528 -1.44694,-1.653644 -0.86817,-0.661458 -2.06706,-0.950846 -1.19889,-0.289388 -2.56315,-0.289388 -0.12402,0 -0.74414,0.08268 -0.57877,0.04134 -0.82682,0.248046 z"
       aria-label="CHERLY GOOD" />
  </g>
  <metadata>
    <rdf:RDF>
      <cc:Work
         rdf:about="">
        <dc:title>Cherly Good</dc:title>
      </cc:Work>
    </rdf:RDF>
  </metadata>
</svg>
